<?xml version="1.0" encoding="UTF-8"?>
<svg id="Calque_2" xmlns="http://www.w3.org/2000/svg" viewBox="0 0 644.38 183">
  <defs>
    <style>
      .cls-1 {
        fill: #ff8000;
      }
    </style>
  </defs>
  <g id="Calque_1-2" data-name="Calque_1">
    <path class="cls-1" d="M91.5,91.5h91.5C183,40.97,142.03,0,91.5,0S0,40.97,0,91.5s40.97,91.5,91.5,91.5v-91.5Z"/>
    <rect class="cls-1" x="13.15" y="13.81" width="78.19" height="78.19"/>
    <rect class="cls-1" x="91.34" y="13.15" width="78.19" height="78.19"/>
    <rect class="cls-1" x="12.98" y="92" width="78.19" height="78.19"/>
    <circle class="cls-1" cx="173.5" cy="148.5" r="14"/>
    <circle class="cls-1" cx="123" cy="118" r="6.5"/>
    <circle class="cls-1" cx="150" cy="118" r="6.5"/>
    <g>
      <path class="cls-1" d="M313.79,146.3h-12.51v-44.3h-49.77v44.3h-12.44V48.27h12.44v42.66h49.77v-42.66h12.51v98.03Z"/>
      <path class="cls-1" d="M397.12,113.21h-50.45c.23,7.93,2.35,14.03,6.36,18.29,4.01,4.26,9.64,6.39,16.88,6.39,3.14,0,6.37-.49,9.67-1.47,3.3-.98,6.62-2.59,9.95-4.82l5.54,8.48c-4.15,2.73-8.32,4.74-12.51,6.02-4.19,1.28-8.8,1.91-13.81,1.91-10.85,0-19.3-3.22-25.36-9.67-6.06-6.45-9.12-15.46-9.16-27.04-.05-11.53,3.02-20.81,9.19-27.86,6.17-7.04,14.18-10.56,24.03-10.56s16.68,3.04,21.88,9.13,7.79,14.55,7.79,25.39v5.81ZM384.88,103.64c-.05-6.61-1.63-11.73-4.75-15.38-3.12-3.64-7.42-5.47-12.89-5.47s-9.92,1.88-13.64,5.64c-3.71,3.76-5.98,8.83-6.8,15.21h38.08Z"/>
      <path class="cls-1" d="M464.59,134.27c-2.64,4.56-6,7.99-10.08,10.29-4.08,2.3-8.88,3.45-14.39,3.45-9.02,0-16.24-3.21-21.64-9.64s-8.1-15.18-8.1-26.25c0-11.89,2.98-21.41,8.96-28.54,5.97-7.13,13.92-10.7,23.86-10.7,4.92,0,9.16.96,12.71,2.87s6.45,4.81,8.68,8.68h.27v-41.77h12.17v103.63h-12.17v-12.03h-.27ZM422.82,111.5c0,8.2,1.89,14.65,5.67,19.35,3.78,4.7,8.84,7.04,15.18,7.04s11.51-2.28,15.38-6.84c3.87-4.56,5.81-10.32,5.81-17.29v-10.25c0-5.74-1.88-10.6-5.64-14.56s-8.51-5.95-14.25-5.95c-6.88,0-12.29,2.53-16.24,7.59-3.94,5.06-5.91,12.03-5.91,20.92Z"/>
      <path class="cls-1" d="M562.62,141.1c0,12.62-3.25,22.14-9.74,28.54-6.49,6.4-15.53,9.6-27.1,9.6-4.97,0-9.57-.49-13.81-1.47-4.24-.98-8.52-2.5-12.85-4.55l4.38-9.23c3.74,1.78,7.36,3.06,10.87,3.86,3.51.8,7.29,1.2,11.35,1.2,7.75,0,13.81-2.21,18.18-6.63s6.56-11.01,6.56-19.76v-8.34h-.27c-2.69,4.56-6.08,7.98-10.19,10.25-4.1,2.28-8.86,3.42-14.29,3.42-8.93,0-16.12-3.2-21.57-9.6-5.45-6.4-8.17-14.98-8.17-25.74,0-11.8,3-21.38,8.99-28.74,5.99-7.36,13.93-11.04,23.82-11.04,4.83,0,9.02.96,12.58,2.87s6.49,4.81,8.82,8.68h.27v-9.84h12.17v66.51ZM550.45,113.83v-10.32c0-5.65-1.88-10.48-5.64-14.49-3.76-4.01-8.47-6.02-14.12-6.02-6.93,0-12.37,2.42-16.34,7.25-3.96,4.83-5.95,12.05-5.95,21.67,0,8.29,1.85,14.7,5.54,19.21s8.75,6.77,15.18,6.77,11.47-2.26,15.42-6.77c3.94-4.51,5.91-10.28,5.91-17.29Z"/>
      <path class="cls-1" d="M644.38,74.59l-33.43,84.56c-2.64,6.74-6.02,11.8-10.12,15.18s-8.96,5.06-14.56,5.06c-1.5,0-2.91-.09-4.2-.27s-2.52-.43-3.66-.75l2.32-10.19c.91.32,1.77.55,2.56.68.8.14,1.61.21,2.43.21,3.01,0,5.54-.8,7.59-2.39s3.71-3.85,4.99-6.77l5.81-13.74-28.1-71.57h13.47l19,54.35c.14.46.33,1.17.58,2.15.25.98.56,2.2.92,3.66h.41c.14-.64.33-1.42.58-2.36.25-.93.56-2.04.92-3.32l19.96-54.48h12.51Z"/>
    </g>
  </g>
</svg>